<svg
	width="512"
	height="96"
	viewBox="0 0 512 96"
	fill="none"
	xmlns="https://www.w3.org/2000/svg"
>
	<path
		d="M467.625 52.375V43.4688H478.969C484.094 43.4688 487.969 42.2031 490.594 39.6719C493.219 37.1094 494.531 33.375 494.531 28.4688C494.531 24.1562 493.219 20.8906 490.594 18.6719C487.969 16.4531 484.094 15.3438 478.969 15.3438H467.812V6.4375H478.969C487.312 6.4375 493.625 8.29688 497.906 12.0156C502.219 15.7344 504.375 21.2187 504.375 28.4688C504.375 36.3125 502.219 42.2656 497.906 46.3281C493.625 50.3594 487.312 52.375 478.969 52.375H467.625ZM459.375 73V6.4375H468.75V73H459.375Z"
		fill="white"
	/>
	<path
		d="M421.703 73.9375C417.922 73.9375 414.375 73.625 411.062 73C407.781 72.4062 404.734 71.5 401.922 70.2812L403.141 60.8125C406.578 62.2812 409.891 63.4062 413.078 64.1875C416.297 64.9375 419.422 65.3125 422.453 65.3125C426.828 65.3125 430.078 64.5469 432.203 63.0156C434.328 61.4844 435.391 59.1562 435.391 56.0312C435.391 52.0625 433.359 49.1562 429.297 47.3125L417.766 42.0625C413.234 40 409.75 37.5156 407.312 34.6094C404.906 31.7031 403.703 28.0938 403.703 23.7812C403.703 17.9688 405.453 13.4688 408.953 10.2812C412.453 7.09375 417.406 5.5 423.812 5.5C428.281 5.5 432.234 6.15625 435.672 7.46875C439.109 8.78125 442.422 10.9219 445.609 13.8906L439.047 20.5469C436.297 18.2969 433.719 16.6719 431.312 15.6719C428.938 14.6406 426.453 14.125 423.859 14.125C420.641 14.125 418.141 14.9063 416.359 16.4688C414.609 18 413.734 20.2812 413.734 23.3125C413.734 25.4688 414.312 27.2344 415.469 28.6094C416.625 29.9531 418.328 31.1562 420.578 32.2188L430.328 36.8125C435.266 39.125 439.016 41.7344 441.578 44.6406C444.141 47.5469 445.422 51.2812 445.422 55.8438C445.422 61.875 443.453 66.4062 439.516 69.4375C435.609 72.4375 429.672 73.9375 421.703 73.9375Z"
		fill="white"
	/>
	<path
		d="M355.156 73V64.0938H362.562C369.406 64.0938 374.547 62.1406 377.984 58.2344C381.453 54.3281 383.188 48.4688 383.188 40.6562C383.188 32.1875 381.453 25.8594 377.984 21.6719C374.547 17.4531 369.406 15.3438 362.562 15.3438H355.344L354.219 6.4375H362.562C382.875 6.4375 393.031 17.8437 393.031 40.6562C393.031 62.2188 382.875 73 362.562 73H355.156ZM346.438 73V6.4375H355.812V73H346.438Z"
		fill="white"
	/>
	<path
		d="M287.391 95.5L286.922 86.5938L294.703 85.6562C297.984 85.25 300.781 84.3594 303.094 82.9844C305.438 81.6094 307.438 79.5625 309.094 76.8438C310.75 74.1562 312.203 70.625 313.453 66.25L325.828 23.3125H336.141L321.797 68.5938C319.922 74.5312 317.812 79.3125 315.469 82.9375C313.156 86.5625 310.406 89.2812 307.219 91.0938C304.062 92.9062 300.266 94.0625 295.828 94.5625L287.391 95.5ZM306.234 73L286.453 23.3125H296.766L312.984 65.5H314.484V73H306.234Z"
		fill="white"
	/>
	<path
		d="M260.781 73.9375C252.312 73.9375 245.766 71.7188 241.141 67.2812C236.547 62.8125 234.25 56.4062 234.25 48.0625C234.25 39.9375 236.203 33.625 240.109 29.125C244.016 24.625 249.531 22.375 256.656 22.375C263.375 22.375 268.562 24.4062 272.219 28.4688C275.906 32.5312 277.75 38.4375 277.75 46.1875C277.75 48.4688 277.656 50.5938 277.469 52.5625H242.594V44.9688H268.75C268.75 40.5 267.688 37.0781 265.562 34.7031C263.438 32.2969 260.5 31.0938 256.75 31.0938C252.531 31.0938 249.25 32.5312 246.906 35.4062C244.594 38.2812 243.438 42.3438 243.438 47.5938C243.438 53.3438 245.031 57.7188 248.219 60.7188C251.438 63.7188 256 65.2188 261.906 65.2188C263.969 65.2188 266 65.1094 268 64.8906C270 64.6406 272.031 64.3125 274.094 63.9062L275.312 72.625C272.375 73.1875 269.688 73.5469 267.25 73.7031C264.812 73.8594 262.656 73.9375 260.781 73.9375Z"
		fill="white"
	/>
	<path
		d="M210.312 73V40.6562C210.312 37.6562 209.531 35.3438 207.969 33.7188C206.406 32.0938 204.219 31.2812 201.406 31.2812C193.594 31.2812 189.688 35.875 189.688 45.0625L186.781 32.3125H190.625C190.906 28.9688 192.125 26.4844 194.281 24.8594C196.438 23.2031 199.594 22.375 203.75 22.375C209 22.375 213.062 23.9688 215.938 27.1562C218.812 30.3438 220.25 34.8438 220.25 40.6562V73H210.312ZM179.75 73V23.3125H188.75L189.688 33.8125V73H179.75Z"
		fill="white"
	/>
	<path
		d="M144 73.9375C137.125 73.9375 131.781 71.6875 127.969 67.1875C124.156 62.6875 122.25 56.3438 122.25 48.1562C122.25 39.9375 124.156 33.5938 127.969 29.125C131.781 24.625 137.125 22.375 144 22.375C150.906 22.375 156.25 24.625 160.031 29.125C163.844 33.5938 165.75 39.9375 165.75 48.1562C165.75 56.3438 163.844 62.6875 160.031 67.1875C156.25 71.6875 150.906 73.9375 144 73.9375ZM144 65.0312C147.656 65.0312 150.469 63.5625 152.438 60.625C154.438 57.6875 155.438 53.5312 155.438 48.1562C155.438 42.75 154.438 38.5938 152.438 35.6875C150.469 32.75 147.656 31.2812 144 31.2812C140.344 31.2812 137.516 32.75 135.516 35.6875C133.547 38.5938 132.562 42.75 132.562 48.1562C132.562 53.5312 133.547 57.6875 135.516 60.625C137.516 63.5625 140.344 65.0312 144 65.0312Z"
		fill="white"
	/>
	<path
		d="M97 73.9375C89.4688 73.9375 84.0156 72.375 80.6406 69.25C77.2969 66.125 75.625 61.125 75.625 54.25V45.8125H85.5625V53.7812C85.5625 57.7188 86.5156 60.5781 88.4219 62.3594C90.3594 64.1406 93.5312 65.0312 97.9375 65.0312C99.5 65.0312 101.156 64.9531 102.906 64.7969C104.656 64.6094 106.656 64.375 108.906 64.0938L110.031 72.8125C107.844 73.1875 105.703 73.4688 103.609 73.6562C101.547 73.8438 99.3438 73.9375 97 73.9375ZM75.625 49.5625V8.3125H85.5625V49.5625H75.625ZM63.1562 31.4688V23.3125H108.156V31.4688H63.1562Z"
		fill="white"
	/>
	<path
		d="M29.7031 73.9375C25.9219 73.9375 22.375 73.625 19.0625 73C15.7812 72.4062 12.7344 71.5 9.92188 70.2812L11.1406 60.8125C14.5781 62.2812 17.8906 63.4062 21.0781 64.1875C24.2969 64.9375 27.4219 65.3125 30.4531 65.3125C34.8281 65.3125 38.0781 64.5469 40.2031 63.0156C42.3281 61.4844 43.3906 59.1562 43.3906 56.0312C43.3906 52.0625 41.3594 49.1562 37.2969 47.3125L25.7656 42.0625C21.2344 40 17.75 37.5156 15.3125 34.6094C12.9062 31.7031 11.7031 28.0938 11.7031 23.7812C11.7031 17.9688 13.4531 13.4688 16.9531 10.2812C20.4531 7.09375 25.4062 5.5 31.8125 5.5C36.2812 5.5 40.2344 6.15625 43.6719 7.46875C47.1094 8.78125 50.4219 10.9219 53.6094 13.8906L47.0469 20.5469C44.2969 18.2969 41.7188 16.6719 39.3125 15.6719C36.9375 14.6406 34.4531 14.125 31.8594 14.125C28.6406 14.125 26.1406 14.9063 24.3594 16.4688C22.6094 18 21.7344 20.2812 21.7344 23.3125C21.7344 25.4688 22.3125 27.2344 23.4688 28.6094C24.625 29.9531 26.3281 31.1562 28.5781 32.2188L38.3281 36.8125C43.2656 39.125 47.0156 41.7344 49.5781 44.6406C52.1406 47.5469 53.4219 51.2812 53.4219 55.8438C53.4219 61.875 51.4531 66.4062 47.5156 69.4375C43.6094 72.4375 37.6719 73.9375 29.7031 73.9375Z"
		fill="white"
	/>
</svg>
